<?xml version="1.0" standalone="no"?>
<!DOCTYPE svg PUBLIC "-//W3C//DTD SVG 20010904//EN"
 "http://www.w3.org/TR/2001/REC-SVG-20010904/DTD/svg10.dtd">
<svg version="1.0" xmlns="http://www.w3.org/2000/svg"
 width="1500.000000pt" height="1500.000000pt" viewBox="0 0 1500.000000 1500.000000"
 preserveAspectRatio="xMidYMid meet">
<metadata>
Created by potrace 1.14, written by Peter Selinger 2001-2017
</metadata>
<g transform="translate(0.000000,1500.000000) scale(0.100000,-0.100000)"
fill="#000000" stroke="none">
<path d="M7960 12129 c-113 -17 -254 -88 -336 -168 -124 -120 -193 -270 -200
-436 -11 -294 165 -542 456 -640 l65 -22 113 -189 c198 -331 278 -474 388
-694 102 -204 112 -219 183 -290 92 -90 156 -124 289 -152 112 -23 340 -28
410 -9 91 25 104 80 49 196 -27 56 -209 383 -247 445 -8 14 -104 179 -158 274
-13 23 -37 62 -53 89 -16 26 -29 50 -29 52 0 3 -12 24 -26 46 -14 23 -36 60
-49 82 -13 23 -68 122 -124 220 -56 99 -101 185 -101 193 0 8 11 31 25 52 13
21 37 71 51 112 23 64 27 92 28 190 1 133 -4 165 -40 256 -94 234 -315 390
-566 398 -46 1 -103 -1 -128 -5z m240 -328 c204 -96 259 -356 112 -521 -209
-234 -583 -90 -583 224 0 85 47 192 103 234 9 7 23 19 31 26 12 13 70 42 117
60 34 13 175 -2 220 -23z"/>
<path d="M9607 11533 c-3 -3 -79 -7 -169 -9 -200 -5 -251 -10 -290 -30 -59
-30 -37 -90 159 -434 127 -224 263 -459 393 -680 164 -279 172 -292 207 -358
39 -71 51 -145 34 -207 -6 -22 -61 -128 -122 -235 -61 -107 -124 -217 -139
-245 -66 -121 -178 -323 -198 -357 -12 -21 -31 -55 -43 -75 -59 -105 -178
-296 -277 -446 -61 -92 -118 -189 -128 -215 -9 -26 -21 -51 -26 -57 -4 -5 -8
-12 -8 -15 0 -5 787 -6 813 -1 4 0 7 5 7 10 0 6 301 530 566 984 19 31 49 83
67 115 19 31 80 136 137 232 125 212 147 260 155 326 12 110 -21 185 -227 514
-16 27 -173 293 -206 350 -11 19 -51 89 -89 155 -38 66 -91 161 -118 210 -26
50 -61 115 -78 145 -17 30 -35 64 -41 75 -50 93 -141 185 -219 220 -49 23
-149 40 -160 28z"/>
<path d="M6577 11523 c-6 -5 -313 -13 -727 -18 -234 -3 -466 -7 -516 -10 -175
-8 -304 -83 -351 -204 -10 -25 -35 -77 -56 -116 -169 -318 -173 -355 -41 -373
78 -10 804 -2 1247 14 296 10 331 11 379 2 98 -18 143 -58 234 -210 37 -62 97
-161 133 -219 37 -58 71 -114 78 -125 6 -10 65 -104 131 -209 65 -104 140
-226 166 -270 25 -44 51 -87 56 -95 5 -8 18 -31 28 -50 10 -19 34 -64 54 -100
20 -36 59 -109 86 -162 172 -330 364 -469 652 -470 156 -1 310 27 349 63 40
37 25 86 -71 244 -212 347 -343 564 -355 585 -8 14 -32 54 -55 90 -54 86 -814
1352 -846 1410 -39 70 -83 124 -130 160 -73 56 -109 64 -285 65 -87 1 -159 0
-160 -2z"/>
<path d="M4205 10500 c-170 -42 -333 -161 -413 -303 -69 -119 -87 -190 -86
-337 0 -241 146 -465 369 -567 178 -82 398 -77 563 14 93 51 180 127 229 202
10 15 821 29 933 16 81 -10 231 -5 291 9 69 16 136 44 184 76 94 63 209 212
286 374 70 145 58 202 -47 227 -34 8 -496 5 -1044 -6 -154 -3 -544 -7 -567 -6
-7 1 -25 20 -42 44 -77 109 -180 187 -313 234 -59 20 -96 26 -188 29 -63 2
-133 -1 -155 -6z m255 -316 c32 -11 75 -38 105 -66 189 -173 118 -492 -125
-564 -216 -64 -431 94 -432 317 -1 233 229 393 452 313z"/>
<path d="M11140 9675 c-99 -20 -194 -61 -265 -115 -11 -8 -48 -43 -83 -78 -70
-71 -142 -206 -161 -302 -19 -96 -15 -228 10 -307 9 -28 6 -40 -26 -100 -96
-178 -277 -502 -312 -556 -13 -22 -22 -42 -18 -45 4 -4 177 -7 385 -7 l378 -1
53 91 c30 49 55 96 57 103 2 6 7 12 12 12 4 0 10 9 13 20 5 18 14 20 79 21 89
1 105 3 191 30 119 38 231 117 304 214 159 211 181 466 60 699 -42 81 -163
202 -249 250 -128 71 -289 98 -428 71z m275 -332 c53 -28 121 -102 148 -161
14 -32 21 -73 23 -128 3 -71 0 -87 -26 -141 -101 -215 -372 -266 -538 -101
-143 142 -126 384 36 503 105 77 241 88 357 28z"/>
<path d="M6187 9143 c-4 -3 -1148 -21 -1817 -28 -490 -5 -514 -8 -598 -68 -51
-37 -94 -93 -149 -197 -22 -41 -94 -174 -159 -295 -65 -121 -126 -236 -136
-255 -10 -19 -31 -58 -47 -86 l-29 -50 395 0 394 1 28 51 c43 79 70 113 114
145 58 42 94 49 288 53 96 3 282 8 414 12 245 8 718 9 1015 3 188 -4 253 2
352 36 176 60 298 177 394 379 51 109 80 210 71 248 -13 50 -32 53 -290 53
-131 0 -239 -1 -240 -2z"/>
<path d="M3459 7946 c-2 -2 -19 -7 -38 -9 -92 -15 -221 -104 -285 -196 -96
-138 -93 -353 7 -500 55 -80 154 -153 247 -180 59 -18 164 -22 226 -9 61 12
178 69 221 106 l33 28 -45 47 -44 46 -28 -23 c-104 -86 -241 -104 -360 -45
-89 43 -145 115 -168 214 -38 162 53 330 208 381 103 34 236 5 314 -68 l31
-30 25 28 c14 16 34 40 45 54 l20 24 -37 29 c-81 65 -170 97 -282 103 -47 2
-88 2 -90 0z"/>
<path d="M4281 7929 c-194 -53 -324 -219 -330 -421 -4 -130 38 -236 129 -328
171 -173 448 -184 635 -25 l40 34 -43 44 -44 45 -56 -39 c-174 -119 -394 -63
-481 121 -21 46 -26 70 -26 140 0 73 4 93 28 142 91 186 316 235 486 107 l49
-37 22 26 c13 15 32 37 43 50 l21 23 -29 25 c-47 41 -156 91 -221 103 -75 14
-150 11 -223 -10z"/>
<path d="M5183 7935 c-154 -36 -293 -167 -333 -315 -78 -287 128 -566 423
-575 45 -2 103 4 135 12 80 21 222 104 222 130 0 4 -19 27 -41 51 l-41 42 -30
-25 c-155 -131 -385 -96 -485 72 -127 216 17 490 260 495 83 1 156 -26 220
-82 l35 -30 41 45 c22 24 41 49 41 54 0 28 -142 109 -227 129 -56 13 -157 12
-220 -3z"/>
<path d="M10418 7934 c-32 -8 -81 -25 -110 -40 -65 -33 -167 -135 -196 -195
-104 -219 -27 -471 182 -594 72 -42 133 -58 231 -59 123 -2 189 16 276 75 249
168 275 505 55 707 -112 103 -276 142 -438 106z m222 -131 c65 -21 142 -89
178 -157 36 -70 41 -201 10 -276 -31 -75 -89 -135 -165 -171 -58 -28 -73 -31
-137 -27 -187 9 -316 159 -304 352 9 136 97 247 228 287 44 13 136 9 190 -8z"/>
<path d="M6060 7930 c0 -5 -16 -44 -35 -86 -19 -41 -35 -77 -35 -79 0 -2 -15
-36 -34 -77 -18 -40 -55 -122 -81 -183 -26 -60 -61 -138 -76 -173 -16 -34 -29
-64 -29 -67 0 -2 -17 -41 -39 -87 -64 -137 -65 -128 24 -128 69 0 76 2 85 23
5 12 24 58 42 102 l33 80 224 0 224 0 43 -100 42 -100 81 -3 81 -3 -19 43
c-53 122 -270 619 -316 723 l-53 120 -81 3 c-51 2 -81 -1 -81 -8z m119 -234
c11 -28 43 -105 71 -171 28 -66 52 -124 53 -129 1 -6 -67 -10 -164 -11 l-167
-1 13 37 c7 20 18 45 23 55 6 11 27 60 47 109 21 50 43 104 50 120 7 17 17 41
20 54 7 24 8 24 21 6 8 -10 23 -42 33 -69z"/>
<path d="M6729 7933 c0 -5 -1 -205 -2 -446 l-2 -437 267 0 267 0 3 28 c2 15 1
44 -1 64 l-3 38 -191 2 -191 3 0 378 0 377 -73 0 c-40 0 -73 -3 -74 -7z"/>
<path d="M7405 7498 l0 -443 215 0 c230 0 260 3 330 31 162 64 265 204 275
376 14 217 -109 396 -314 458 -49 15 -100 18 -283 19 l-223 2 0 -443z m480
291 c167 -62 240 -284 152 -455 -24 -46 -87 -105 -136 -128 -39 -17 -70 -21
-196 -24 l-150 -4 0 317 0 316 140 -2 c110 -1 151 -5 190 -20z"/>
<path d="M8390 7495 l0 -445 323 2 322 3 2 63 3 62 -250 0 -250 0 -1 28 c-1
29 -1 134 0 192 l1 36 208 -1 c114 -1 212 0 217 2 10 3 12 110 2 119 -3 3
-100 6 -216 6 -189 0 -211 2 -212 17 -2 69 0 223 4 227 2 2 112 5 243 5 l239
1 -1 61 -2 62 -316 3 -316 2 0 -445z"/>
<path d="M9220 7496 l0 -446 75 0 75 0 0 138 0 137 126 -1 c69 -1 126 -3 128
-5 1 -2 38 -64 82 -136 l79 -133 83 0 c45 0 82 2 82 4 0 2 -43 68 -95 146 -52
78 -95 145 -95 149 0 3 14 12 31 20 48 21 106 87 127 143 14 37 19 74 18 132
-2 99 -27 158 -91 214 -76 66 -117 75 -387 80 l-238 4 0 -446z m490 287 c54
-27 80 -66 85 -131 7 -93 -40 -165 -124 -191 -21 -6 -97 -11 -170 -11 l-131 0
0 179 0 180 43 3 c23 2 89 1 147 -2 81 -4 115 -10 150 -27z"/>
<path d="M11169 7933 c-4 -40 -3 -867 2 -874 3 -6 37 -9 75 -7 l69 3 0 322 c0
177 3 319 6 315 9 -10 177 -239 332 -452 l134 -185 75 -3 74 -3 0 443 -1 443
-72 3 -73 3 0 -328 0 -327 -50 69 c-28 39 -135 186 -238 327 l-187 258 -72 0
c-40 0 -73 -3 -74 -7z"/>
<path d="M3976 6811 c-7 -9 -32 -50 -55 -91 -23 -41 -46 -82 -51 -90 -5 -8
-21 -35 -34 -60 -42 -79 -54 -88 -130 -100 -362 -56 -603 -401 -530 -758 73
-356 432 -581 784 -490 41 11 79 22 85 26 5 4 12 7 15 7 22 1 135 80 185 129
79 77 126 151 161 252 25 70 28 93 28 204 0 114 -2 132 -30 212 -17 48 -28 90
-24 95 4 4 27 44 50 88 23 44 47 86 52 93 6 6 7 12 3 12 -5 0 -1 8 7 18 8 9
31 49 50 87 20 39 75 140 122 225 47 84 86 155 86 155 0 1 -171 2 -380 1 -332
0 -382 -2 -394 -15z m-71 -658 c135 -41 227 -168 227 -313 0 -255 -270 -415
-495 -293 -155 85 -216 291 -132 452 24 48 97 117 148 141 84 39 155 43 252
13z"/>
<path d="M5211 6816 c-5 -6 -21 -33 -36 -61 -59 -106 -82 -147 -205 -365 -70
-124 -142 -252 -160 -285 -18 -33 -125 -222 -238 -420 -113 -198 -217 -382
-233 -410 -62 -114 -71 -225 -26 -326 13 -30 66 -121 117 -204 51 -82 100
-162 109 -177 111 -186 288 -479 302 -500 11 -15 19 -29 19 -32 0 -3 22 -43
48 -88 27 -46 66 -114 87 -153 147 -272 261 -369 422 -360 32 2 130 6 218 10
176 6 257 19 280 41 24 24 18 70 -19 143 -32 63 -323 567 -403 696 -7 11 -34
56 -60 100 -26 44 -52 87 -58 96 -5 9 -29 50 -53 90 -57 99 -66 113 -72 119
-14 13 -148 249 -158 277 -6 17 -9 58 -8 90 2 63 21 107 106 258 89 156 137
244 225 410 142 269 342 611 443 759 57 85 136 232 147 277 l6 26 -396 0
c-267 -1 -398 -4 -404 -11z"/>
<path d="M10929 6745 c-55 -100 -119 -166 -179 -185 -32 -10 -124 -15 -320
-18 -328 -6 -1035 -7 -1355 -1 -201 3 -238 2 -295 -14 -200 -57 -338 -177
-439 -382 -68 -137 -95 -238 -72 -273 24 -39 34 -39 1434 -35 1463 4 1410 2
1496 57 67 43 111 103 206 281 27 50 56 104 66 122 10 18 35 63 55 100 20 37
65 118 99 178 86 152 135 242 135 247 0 2 -177 4 -394 4 l-394 0 -43 -81z"/>
<path d="M6807 6094 c-1 -1 -38 -4 -82 -8 -44 -3 -97 -10 -117 -15 -21 -5 -38
-7 -38 -5 0 3 -18 -5 -39 -16 -77 -39 -69 -80 66 -308 58 -97 137 -231 176
-297 39 -66 104 -176 145 -245 41 -69 83 -138 92 -155 15 -26 59 -101 225
-385 18 -30 100 -172 184 -315 83 -143 155 -267 161 -275 10 -17 163 -281 219
-379 72 -125 133 -183 227 -217 51 -18 189 -20 544 -9 115 3 623 5 970 2 122
-1 227 20 300 59 52 27 121 107 137 158 6 20 16 38 110 216 73 136 90 188 74
218 -24 45 -50 47 -656 46 -313 -1 -671 -3 -795 -6 -224 -4 -278 0 -335 27
-37 17 -94 77 -125 130 -13 22 -31 54 -41 70 -69 110 -179 299 -179 305 0 5
-3 10 -7 12 -5 2 -16 17 -26 33 -9 17 -87 146 -172 288 -85 141 -209 361 -274
487 -144 278 -205 366 -309 448 -96 77 -205 118 -341 130 -51 4 -93 7 -94 6z"/>
<path d="M10640 5689 c-151 -27 -246 -75 -357 -182 l-63 -60 -187 -5 c-302 -8
-678 -7 -818 2 -197 13 -244 13 -320 -1 -83 -15 -193 -68 -258 -124 -113 -99
-276 -369 -277 -460 0 -47 31 -76 96 -89 30 -6 367 -8 877 -6 l829 3 16 -26
c9 -14 22 -32 29 -39 7 -7 13 -17 13 -20 0 -16 105 -114 158 -150 116 -76 194
-102 327 -107 193 -8 346 52 486 190 113 112 181 279 180 445 0 47 -2 94 -5
105 -43 205 -158 361 -338 460 -38 20 -68 34 -68 30 0 -4 -6 -3 -12 2 -36 28
-222 48 -308 32z m233 -327 c89 -39 158 -120 183 -215 26 -98 10 -193 -46
-275 -126 -184 -390 -196 -535 -24 -78 93 -95 245 -41 356 29 58 126 156 156
156 9 0 20 3 24 8 4 4 11 7 14 8 4 0 14 4 22 7 47 19 155 9 223 -21z"/>
<path d="M5767 5454 c-1 -1 -21 -4 -45 -8 -114 -15 -137 -77 -75 -200 27 -54
228 -401 348 -601 96 -159 361 -610 418 -709 l45 -79 -30 -49 c-68 -110 -101
-301 -75 -433 60 -300 342 -529 641 -520 514 16 802 575 516 999 -81 120 -253
237 -385 262 -24 4 -38 15 -50 37 -9 18 -40 69 -68 114 -192 304 -331 545
-441 762 -37 74 -80 153 -96 176 -92 134 -236 218 -410 241 -48 6 -287 13
-293 8z m1288 -1636 c99 -20 186 -91 232 -187 22 -46 27 -70 27 -136 1 -72 -3
-89 -32 -147 -131 -266 -507 -248 -612 31 -26 68 -22 188 9 253 54 112 176
193 296 196 17 0 53 -4 80 -10z"/>
</g>
</svg>
